<?xml version="1.0" standalone="no"?>
<!DOCTYPE svg PUBLIC "-//W3C//DTD SVG 20010904//EN"
 "http://www.w3.org/TR/2001/REC-SVG-20010904/DTD/svg10.dtd">
<svg version="1.0" xmlns="http://www.w3.org/2000/svg"
 width="1200.000000pt" height="1200.000000pt" viewBox="0 0 1200.000000 1200.000000"
 preserveAspectRatio="xMidYMid meet">
<metadata>
Created by potrace 1.14, written by Peter Selinger 2001-2017
</metadata>
<g transform="translate(0.000000,1200.000000) scale(0.100000,-0.100000)"
fill="#000000" stroke="none">
<path d="M6805 10143 c-213 -26 -287 -38 -412 -63 -173 -36 -157 -32 -280 -65
-96 -26 -359 -108 -398 -125 -11 -4 -65 -25 -120 -45 -55 -21 -113 -43 -130
-51 -16 -7 -73 -31 -125 -53 -436 -183 -980 -483 -1475 -815 -149 -99 -487
-337 -545 -383 -8 -6 -78 -60 -155 -119 -158 -122 -145 -112 -205 -160 -25
-19 -52 -41 -60 -47 -112 -88 -513 -426 -596 -502 -6 -5 -46 -41 -89 -80 -284
-254 -599 -554 -630 -601 -22 -33 -35 -56 -97 -175 -25 -47 -50 -99 -56 -115
-6 -16 -24 -62 -41 -103 -17 -40 -31 -75 -31 -78 0 -6 90 45 111 64 40 34 123
20 140 -25 15 -40 3 -87 -29 -109 -15 -10 -88 -54 -162 -99 l-135 -81 -12 -64
c-37 -198 -38 -473 -3 -624 7 -27 14 -61 16 -75 19 -102 111 -311 193 -435
136 -208 467 -561 751 -801 206 -174 489 -373 725 -509 99 -57 368 -190 475
-235 30 -13 69 -29 85 -36 74 -31 323 -115 414 -140 97 -27 205 -54 236 -60
17 -3 47 -9 67 -13 43 -10 35 -28 78 159 38 161 57 215 82 228 35 17 50 18 85
3 29 -12 42 -30 49 -67 1 -7 -17 -89 -40 -183 -24 -99 -37 -171 -31 -172 5 0
17 -2 25 -4 8 -1 44 -5 80 -8 36 -4 97 -10 135 -14 39 -4 84 -7 100 -6 232 4
463 12 475 16 8 3 44 8 80 11 70 5 274 34 302 42 9 3 25 6 35 8 74 15 181 39
248 57 44 11 89 22 100 24 31 7 342 110 417 139 273 104 557 242 820 396 167
98 574 378 644 445 6 5 29 24 50 40 155 121 328 277 524 475 185 186 239 244
415 450 93 110 107 126 172 200 21 25 88 104 148 175 60 72 112 132 115 135 3
3 84 97 180 210 95 113 186 219 201 235 15 17 91 104 170 195 79 91 156 179
170 195 15 17 36 39 46 51 10 12 48 54 85 95 36 41 76 85 87 98 53 61 248 266
357 375 284 284 466 426 657 510 l58 26 -62 92 c-59 88 -264 367 -305 415 -11
12 -30 36 -44 54 -14 18 -29 37 -35 44 -5 6 -35 40 -65 75 -104 123 -285 308
-384 392 -87 75 -230 176 -303 215 -43 23 -134 60 -203 83 -69 24 -129 46
-134 51 -6 5 -16 9 -24 9 -13 0 -260 121 -342 167 -19 11 -62 35 -95 53 -33
18 -80 44 -105 58 -324 180 -656 324 -953 412 -106 32 -127 35 -122 22 27 -66
-1 -116 -71 -127 -25 -3 -53 -8 -62 -9 -10 -2 -38 -6 -63 -10 -64 -9 -94 -15
-158 -30 -85 -20 -141 12 -141 79 0 62 25 74 235 110 126 21 149 26 152 29 4
4 -237 46 -372 65 -68 10 -95 12 -290 30 -90 8 -543 11 -600 4z m521 -283 c35
-14 53 -38 54 -72 0 -43 -16 -74 -47 -86 -30 -12 -158 -51 -183 -57 -8 -1 -48
-13 -88 -25 -89 -27 -132 -22 -162 19 -11 16 -20 38 -20 49 0 42 33 61 210
117 96 31 180 58 185 60 17 6 23 5 51 -5z m-780 -290 c26 -19 42 -67 34 -100
-4 -17 -21 -33 -55 -51 -66 -34 -297 -141 -310 -143 -5 -1 -15 -5 -22 -9 -6
-4 -22 -3 -35 2 -80 30 -67 133 21 173 25 11 73 33 106 48 238 109 225 106
261 80z m-748 -351 c42 -14 66 -65 51 -108 -8 -23 -28 -41 -79 -71 -38 -22
-71 -40 -73 -40 -3 0 -51 -27 -108 -61 -89 -53 -107 -60 -138 -55 -60 9 -90
72 -61 127 15 26 133 100 300 186 73 38 67 36 108 22z m-680 -444 c21 -25 23
-45 8 -93 -7 -21 -327 -222 -355 -222 -39 0 -71 20 -88 55 -21 43 -8 76 39
104 18 11 38 25 45 30 7 6 15 11 18 11 3 0 36 20 73 43 170 110 165 108 202
103 21 -3 44 -16 58 -31z m-705 -446 c38 -47 16 -96 -70 -152 -106 -68 -246
-153 -265 -160 -26 -9 -75 11 -93 40 -12 17 -15 35 -10 59 6 36 30 57 126 115
24 15 80 49 125 77 44 27 87 51 95 54 23 8 73 -10 92 -33z m5203 -56 c13 -18
15 -22 18 -45 4 -25 -16 -69 -36 -79 -21 -11 -107 -17 -311 -21 -100 -3 -117
-1 -135 16 -27 24 -37 69 -20 95 23 37 53 43 307 56 52 3 97 7 99 9 8 9 65
-14 78 -31z m539 -7 c138 -19 250 -38 259 -43 16 -10 40 -45 47 -68 12 -42
-50 -96 -101 -89 -14 2 -45 8 -70 13 -25 6 -76 13 -112 16 -37 4 -75 8 -85 10
-10 2 -33 4 -51 4 -75 2 -109 93 -56 146 28 28 40 28 169 11z m-1372 -80 c13
-14 24 -40 25 -60 3 -47 -29 -80 -88 -91 -25 -4 -47 -9 -50 -10 -7 -2 -61 -15
-85 -20 -11 -2 -51 -13 -90 -25 -87 -26 -102 -27 -143 -13 -38 14 -53 46 -41
87 17 59 45 72 299 132 125 29 146 29 173 0z m2227 -134 c164 -59 212 -83 228
-114 16 -30 8 -79 -15 -92 -43 -26 -66 -25 -132 3 -36 16 -100 41 -141 56 -73
26 -84 30 -143 54 -51 20 -58 87 -13 123 33 27 71 22 216 -30z m-3011 -108
c41 -53 17 -120 -49 -139 -14 -4 -91 -36 -172 -71 -81 -35 -156 -64 -167 -64
-10 0 -33 12 -50 26 -26 21 -30 31 -26 57 12 71 8 69 240 163 150 62 193 67
224 28z m-4295 -35 c28 -22 34 -60 15 -102 -7 -15 -73 -63 -173 -125 -135 -84
-168 -100 -192 -96 -42 8 -73 31 -80 61 -14 54 4 72 176 179 178 112 206 121
254 83z m3539 -291 c25 -20 45 -65 39 -93 -6 -34 -30 -52 -213 -154 -167 -94
-201 -102 -243 -61 -24 23 -26 85 -3 107 8 9 89 60 179 114 165 98 206 113
241 87z m-4255 -134 c35 -24 44 -59 28 -98 -13 -31 -90 -85 -309 -215 -60 -36
-123 -16 -141 45 -13 42 11 73 101 131 241 156 275 170 321 137z m3551 -330
c24 -20 31 -34 31 -60 0 -39 8 -31 -159 -156 -174 -131 -187 -138 -223 -126
-65 23 -79 100 -27 149 51 48 251 194 289 211 30 13 59 8 89 -18z m-4238 -113
c45 -45 37 -96 -19 -134 -214 -144 -305 -197 -338 -197 -66 0 -103 67 -73 133
7 15 61 54 142 103 236 143 239 144 288 95z m3612 -402 c9 -12 17 -36 17 -54
0 -29 -12 -44 -89 -116 -49 -46 -109 -109 -132 -139 -68 -87 -99 -97 -148 -51
-50 47 -44 85 27 168 32 38 76 83 98 101 21 18 61 54 88 79 45 40 53 44 85 39
20 -3 44 -15 54 -27z m-545 -620 c29 -18 37 -67 18 -110 -8 -19 -36 -70 -61
-114 -25 -44 -61 -110 -81 -147 -50 -94 -104 -117 -153 -65 -35 38 -33 68 11
154 55 107 117 223 136 251 30 46 85 59 130 31z m-342 -781 c17 -33 18 -29
-13 -98 -13 -30 -47 -110 -75 -178 -56 -136 -78 -162 -139 -162 -29 0 -42 6
-58 26 -12 15 -21 35 -21 45 0 29 140 362 162 386 38 41 118 31 144 -19z
m-313 -723 c24 -10 45 -54 41 -83 -2 -13 -17 -65 -34 -115 -16 -51 -38 -126
-49 -167 -26 -95 -51 -120 -116 -116 -80 5 -96 46 -60 153 12 37 39 120 59
184 47 150 78 178 159 144z"/>
<path d="M11325 7614 c-158 -81 -308 -206 -585 -484 -247 -248 -447 -465 -710
-770 -12 -14 -33 -38 -48 -55 -15 -16 -177 -205 -361 -420 -405 -473 -397
-464 -556 -650 -235 -276 -503 -556 -709 -740 -49 -44 -100 -90 -113 -102 -13
-11 -42 -36 -65 -55 -23 -18 -46 -38 -52 -43 -6 -6 -42 -35 -81 -65 -38 -30
-72 -57 -75 -60 -7 -7 -156 -119 -205 -153 -46 -32 -246 -165 -320 -212 -250
-159 -612 -339 -915 -453 -151 -57 -420 -145 -477 -157 -34 -6 -135 -34 -139
-37 -2 -2 124 -3 279 -2 390 3 798 18 1027 40 25 2 79 6 120 9 41 3 91 7 110
10 19 2 64 7 100 10 36 3 81 8 100 10 43 5 198 24 260 31 25 3 56 7 70 9 14 3
43 7 65 10 106 15 259 39 385 60 52 10 109 19 125 22 87 13 456 91 640 134
391 92 735 191 1110 319 553 189 634 228 778 373 152 153 233 317 282 575 21
112 26 721 10 1122 -5 113 -9 324 -9 470 0 242 4 360 20 630 7 113 11 511 6
593 -2 31 -7 57 -10 57 -4 0 -29 -12 -57 -26z"/>
<path d="M965 5444 c-125 -145 -256 -372 -309 -537 -48 -148 -61 -231 -61
-402 0 -225 34 -370 135 -582 44 -93 167 -291 219 -353 11 -14 24 -30 28 -35
93 -122 312 -341 508 -506 199 -167 406 -315 630 -451 72 -43 137 -83 145 -88
8 -5 105 -54 215 -109 553 -275 1101 -430 1750 -496 247 -25 806 -25 1000 0
17 2 55 6 85 10 129 13 360 45 440 61 14 2 60 11 102 19 43 8 106 21 140 29
35 8 113 27 173 41 295 70 706 204 1000 325 190 79 406 177 595 271 244 122
432 225 648 354 134 80 163 99 168 106 3 5 -1 7 -8 4 -18 -6 -65 -15 -118 -21
-25 -3 -61 -9 -80 -14 -19 -5 -60 -12 -90 -15 -30 -4 -64 -9 -75 -11 -29 -6
-290 -42 -355 -49 -30 -3 -66 -8 -80 -10 -14 -2 -54 -7 -90 -10 -36 -4 -72 -8
-80 -10 -8 -2 -53 -6 -100 -10 -47 -3 -102 -8 -123 -11 -38 -4 -94 -8 -252
-20 -49 -3 -108 -7 -130 -9 -343 -26 -1193 -26 -1505 0 -25 2 -90 7 -145 10
-55 4 -113 8 -130 10 -16 3 -64 7 -105 11 -41 3 -83 8 -92 9 -9 2 -44 6 -77
10 -33 3 -69 8 -81 10 -29 6 -105 13 -210 20 -47 4 -96 8 -110 10 -14 2 -47 6
-75 9 -68 9 -287 46 -295 51 -3 2 -23 6 -45 9 -22 4 -92 20 -155 36 -63 17
-122 32 -131 34 -68 17 -400 135 -509 181 -139 58 -424 198 -518 254 -29 17
-55 31 -57 31 -8 0 -283 177 -380 245 -143 99 -330 247 -450 355 -117 106
-154 141 -259 246 -270 272 -397 435 -528 679 -32 60 -106 254 -114 304 -10
52 -18 53 -59 5z"/>
</g>
</svg>
