<?xml version="1.0" standalone="no"?>
<!DOCTYPE svg PUBLIC "-//W3C//DTD SVG 20010904//EN"
 "http://www.w3.org/TR/2001/REC-SVG-20010904/DTD/svg10.dtd">
<svg version="1.0" xmlns="http://www.w3.org/2000/svg"
 width="1024.000000pt" height="1024.000000pt" viewBox="0 0 1024.000000 1024.000000"
 preserveAspectRatio="xMidYMid meet">
<metadata>
Created by potrace 1.14, written by Peter Selinger 2001-2017
</metadata>
<g transform="translate(0.000000,1024.000000) scale(0.100000,-0.100000)"
fill="#000000" stroke="none">
<path d="M4875 9384 c-196 -19 -273 -28 -355 -40 -1341 -210 -2495 -1060
-3095 -2279 -286 -581 -425 -1179 -425 -1832 0 -777 206 -1514 605 -2168 131
-215 318 -464 457 -610 65 -69 67 -70 118 -70 47 0 55 3 86 37 25 28 34 47 34
74 0 48 -9 63 -105 174 -533 620 -848 1352 -937 2180 -16 148 -16 622 0 769
128 1162 724 2172 1675 2835 1165 812 2702 919 3982 277 186 -93 219 -101 273
-62 62 43 64 144 5 190 -39 32 -352 183 -488 236 -345 136 -687 223 -1075 272
-109 13 -662 26 -755 17z"/>
<path d="M7816 8510 c-340 -115 -630 -217 -645 -226 -14 -10 -136 -99 -271
-198 -135 -99 -345 -253 -467 -342 l-222 -163 -56 80 c-65 92 -105 122 -153
115 -19 -3 -137 -71 -280 -160 -136 -86 -665 -419 -1177 -740 -511 -321 -964
-606 -1005 -632 -160 -102 -276 -257 -320 -430 -39 -151 -20 -344 45 -476 15
-29 63 -110 107 -181 l81 -127 -393 -968 c-216 -532 -431 -1059 -477 -1172
-87 -210 -98 -258 -73 -305 19 -35 19 -35 371 -170 167 -65 309 -120 315 -124
10 -6 -32 -119 -291 -782 l-65 -166 -173 62 c-101 36 -171 66 -170 73 2 7 59
157 128 334 140 361 146 389 96 438 -16 16 -41 32 -56 36 -38 9 -102 -12 -121
-41 -26 -40 -324 -819 -324 -848 0 -47 28 -87 73 -107 23 -10 152 -57 287
-104 135 -48 255 -91 268 -96 34 -14 89 -12 121 5 33 17 41 33 125 247 268
692 328 844 335 851 4 4 38 -3 76 -18 37 -14 85 -25 106 -25 68 0 87 29 200
295 55 132 105 244 109 249 8 8 124 -6 1165 -145 406 -54 474 -57 600 -24 206
54 409 231 484 422 10 27 66 210 124 408 58 198 161 547 228 775 116 392 123
421 127 521 5 119 -10 195 -57 294 -16 33 -144 235 -285 449 -222 339 -254
392 -242 405 65 76 453 572 464 594 31 62 -15 150 -85 163 -60 11 -88 -11
-207 -160 -339 -425 -425 -535 -435 -554 -6 -11 -11 -37 -11 -58 0 -32 41 -99
287 -473 158 -240 297 -462 310 -493 36 -88 39 -157 10 -263 -21 -78 -150
-520 -373 -1280 -36 -121 -77 -245 -92 -275 -35 -71 -133 -169 -204 -204 -132
-65 -192 -68 -503 -27 -121 16 -482 64 -801 107 -342 45 -593 74 -609 70 -14
-4 -37 -17 -49 -29 -12 -12 -66 -127 -121 -255 -54 -128 -102 -235 -107 -238
-8 -5 -744 272 -761 286 -7 6 145 384 658 1645 244 600 265 655 265 691 0 30
-21 70 -111 211 -61 96 -119 198 -129 229 -59 169 -15 357 113 482 34 32 201
144 472 314 764 481 1005 632 1473 926 l462 291 73 -103 c39 -57 173 -248 297
-424 243 -347 255 -361 327 -347 20 3 49 19 65 35 23 24 28 37 28 78 0 44 -6
57 -60 133 -33 46 -59 88 -57 94 4 11 112 99 577 473 l295 237 275 88 c151 48
410 130 575 182 213 67 306 102 323 118 44 45 40 74 -43 333 -43 131 -84 251
-91 266 -17 33 -62 58 -101 57 -15 0 -306 -94 -647 -209z m608 -168 c20 -59
36 -110 36 -114 0 -7 -58 -26 -700 -230 l-356 -113 -289 -235 c-160 -129 -361
-292 -448 -363 -88 -71 -160 -127 -162 -125 -1 2 -37 52 -79 112 -61 88 -74
112 -64 122 7 6 220 164 473 350 l460 338 540 183 c297 100 543 182 547 182 3
1 22 -47 42 -107z"/>
<path d="M8402 7644 c-12 -8 -29 -28 -37 -44 -29 -56 -20 -86 64 -214 292
-447 477 -902 575 -1411 53 -278 61 -375 61 -745 0 -350 -3 -392 -46 -655 -59
-362 -194 -769 -365 -1107 -616 -1211 -1803 -2016 -3154 -2139 -187 -17 -543
-14 -730 5 -371 38 -787 140 -1083 267 -93 39 -137 38 -183 -4 -71 -64 -50
-158 46 -203 67 -32 282 -109 432 -154 224 -67 447 -112 728 -146 221 -27 695
-25 930 4 968 121 1820 542 2490 1228 393 402 675 833 885 1349 444 1092 397
2352 -129 3403 -118 237 -300 533 -348 566 -29 21 -107 21 -136 0z"/>
<path d="M5155 5204 c-214 -8 -400 -16 -412 -19 -49 -12 -73 -50 -177 -295
-57 -135 -228 -536 -380 -892 -152 -356 -276 -654 -276 -663 0 -32 33 -86 61
-100 15 -8 44 -15 64 -15 77 0 74 -6 331 597 496 1164 479 1126 504 1135 13 5
81 7 151 6 l127 -3 -34 -85 c-118 -300 -214 -567 -214 -595 0 -29 129 -402
167 -483 26 -54 94 -77 157 -52 31 11 66 65 66 99 0 13 -34 116 -75 229 l-75
204 131 348 c108 287 136 349 153 354 11 3 64 6 116 6 l95 0 115 -150 c63 -83
116 -158 118 -168 1 -9 -79 -300 -178 -647 -197 -687 -193 -678 -280 -722 -60
-31 -91 -30 -400 17 -146 22 -340 51 -432 65 -92 14 -179 23 -193 19 -13 -3
-38 -22 -55 -40 -43 -49 -42 -101 3 -150 l32 -36 455 -69 c250 -38 475 -69
500 -69 61 0 152 25 213 58 66 36 147 118 179 183 15 30 111 345 213 701 191
668 201 714 172 781 -7 15 -82 119 -167 232 -104 137 -165 210 -187 220 -36
17 -43 17 -588 -1z"/>
</g>
</svg>
